<svg width="145" height="50" viewBox="0 0 145 50" fill="none" xmlns="http://www.w3.org/2000/svg">
<g clip-path="url(#clip0_1_239)">
<path d="M1.90238 50C1.39803 49.9995 0.914495 49.7989 0.557853 49.4423C0.201212 49.0856 0.000589041 48.6021 0 48.0978L0 36.7673C0.000631102 36.263 0.201272 35.7795 0.557909 35.4229C0.914546 35.0663 1.39806 34.8658 1.90238 34.8652H14.1023V33.9315H15.3185C15.3394 33.515 15.5195 33.1224 15.8215 32.8349C16.1235 32.5473 16.5244 32.3867 16.9414 32.3862H27.6786C27.7763 32.3861 27.8731 32.3665 27.9632 32.3286C28.0533 32.2907 28.135 32.2353 28.2034 32.1656C28.2719 32.0958 28.3258 32.0131 28.3621 31.9223C28.3983 31.8315 28.416 31.7344 28.4144 31.6367C28.407 31.2393 28.0709 30.9147 27.665 30.9147L6.45787 30.8988C6.18537 30.8959 5.92506 30.7854 5.73363 30.5915C5.5422 30.3975 5.43515 30.1358 5.43579 29.8632C5.4377 29.1904 5.43833 27.6841 5.4377 25.5047C4.87011 25.4187 4.35213 25.1321 3.97773 24.6969C3.60332 24.2618 3.39729 23.7068 3.397 23.1327C3.39672 22.5587 3.60219 22.0035 3.97616 21.568C4.35012 21.1324 4.86781 20.8453 5.43531 20.7588L5.43388 18.9467C5.43309 17.9597 5.43261 17.273 5.43261 17.1227C5.43261 16.7226 5.61986 16.3425 5.95971 16.0524C6.28032 15.7788 6.69933 15.622 7.10911 15.622H10.1752V2.54106C10.1752 1.86804 10.4416 1.23159 10.9253 0.748838C11.409 0.266091 12.0472 0 12.7221 0H32.973C33.6478 0 34.286 0.265932 34.7692 0.748838C35.2525 1.23174 35.5193 1.86804 35.5193 2.54106V15.6231H38.743C39.138 15.6231 39.4557 15.8033 39.6617 16.1444C39.8795 16.5053 39.9253 16.954 39.9253 17.2668V26.5339C40.4682 26.6438 40.9564 26.9381 41.3071 27.3668C41.6578 27.7956 41.8494 28.3325 41.8494 28.8865C41.8494 29.4404 41.6578 29.9773 41.3071 30.4061C40.9564 30.8348 40.4682 31.1291 39.9253 31.239V36.5533C40.4374 36.6065 40.937 36.7448 41.4035 36.9627C42.2071 37.3381 42.8868 37.935 43.3631 38.6833C43.8393 39.4315 44.0922 40.3001 44.0921 41.187V44.3131C44.0921 46.8823 42.0019 48.9725 39.4327 48.9725C36.8635 48.9725 34.7732 46.8823 34.7732 44.3131V41.187C34.7732 38.7649 36.6462 36.7395 39.0507 36.5435V31.253C38.4911 31.1582 37.9832 30.8686 37.6166 30.4354C37.2501 30.0021 37.0486 29.4532 37.0479 28.8857C37.0479 27.7156 37.9041 26.71 39.0507 26.5183C39.0507 22.926 39.0515 17.5351 39.0507 17.277V17.266C39.0507 17.2166 39.0515 17.1664 39.0521 17.1177C39.0559 16.8617 39.0599 16.5967 38.9474 16.4819C38.9013 16.4352 38.8344 16.4124 38.7426 16.4124H35.5133C35.4682 17.0218 35.2041 17.5942 34.7699 18.0241C34.286 18.507 33.6478 18.7729 32.9737 18.7729H26.4524L26.9588 22.8187H29.72C29.7977 22.8174 29.8749 22.8316 29.947 22.8604C30.0191 22.8893 30.0848 22.9322 30.1402 22.9866C30.1956 23.0411 30.2396 23.1061 30.2696 23.1777C30.2996 23.2494 30.3151 23.3263 30.3151 23.404C30.3151 23.4817 30.2996 23.5586 30.2696 23.6303C30.2396 23.7019 30.1956 23.7669 30.1402 23.8214C30.0848 23.8759 30.0191 23.9188 29.947 23.9476C29.8749 23.9764 29.7977 23.9906 29.72 23.9894H26.5663L26.5346 23.9946C26.4711 24.0051 26.4063 24.0051 26.3429 23.9946L26.3111 23.9895H19.38L19.3482 23.9946C19.3171 23.9996 19.2857 24.0021 19.2542 24.0021C19.2226 24.0021 19.1909 23.9996 19.1597 23.9944L19.1288 23.9895H15.975C15.8592 23.9898 15.7458 23.9559 15.6493 23.8918C15.5528 23.8278 15.4774 23.7366 15.4326 23.6298C15.3875 23.5221 15.3757 23.4033 15.3988 23.2889C15.4219 23.1744 15.4787 23.0695 15.562 22.9876C15.6722 22.8791 15.8207 22.8184 15.9753 22.8188H18.7365L19.2431 18.7736H12.7221C12.0472 18.7736 11.409 18.5076 10.9259 18.0247C10.4916 17.5949 10.2275 17.0224 10.1824 16.4131H7.10911C6.90471 16.4142 6.70725 16.4873 6.5515 16.6197C6.39381 16.7553 6.30687 16.934 6.30687 17.1228C6.30687 17.25 6.30559 18.3604 6.30369 19.8966L6.30257 20.7845C6.83992 20.8998 7.32141 21.1961 7.66659 21.6237C8.01178 22.0514 8.19975 22.5845 8.1991 23.1341C8.19845 23.6837 8.00922 24.2164 7.66302 24.6433C7.31682 25.0701 6.83463 25.3652 6.29701 25.4792C6.29558 26.5443 6.29161 29.7629 6.29161 29.7629C6.29159 29.8207 6.30295 29.8779 6.32504 29.9313C6.34714 29.9847 6.37953 30.0332 6.42037 30.074C6.46122 30.1149 6.50971 30.1473 6.56308 30.1694C6.61646 30.1915 6.67366 30.2029 6.73144 30.2029L27.6598 30.1234C28.5038 30.1234 29.1969 30.8014 29.205 31.6348C29.2068 31.8364 29.1687 32.0365 29.0929 32.2233C29.017 32.4102 28.9049 32.5802 28.7631 32.7235C28.6212 32.8668 28.4524 32.9807 28.2664 33.0584C28.0803 33.1362 27.8807 33.1764 27.679 33.1767H16.9414C16.734 33.1769 16.5341 33.2543 16.3807 33.3938C16.2272 33.5333 16.1311 33.7249 16.1111 33.9314H17.4452V34.8649H29.7246V34.8667C30.2147 34.8877 30.6779 35.0971 31.0174 35.4511C31.357 35.8051 31.5469 36.2766 31.5475 36.7671V48.0976C31.547 48.602 31.3464 49.0856 30.9897 49.4422C30.6331 49.7988 30.1495 49.9995 29.6451 50H1.90238ZM1.90238 35.5874C1.58954 35.5877 1.28962 35.7121 1.06842 35.9333C0.847209 36.1545 0.722788 36.4545 0.722451 36.7673V48.0976C0.722788 48.4105 0.847209 48.7104 1.06842 48.9316C1.28962 49.1528 1.58954 49.2772 1.90238 49.2775H29.6451C29.958 49.2772 30.2579 49.1528 30.4792 48.9316C30.7004 48.7104 30.8249 48.4105 30.8252 48.0976V36.7673C30.8249 36.4544 30.7004 36.1545 30.4792 35.9333C30.2579 35.7121 29.958 35.5877 29.6451 35.5874H1.90238ZM39.4336 37.2497C37.2626 37.2497 35.4964 39.016 35.4964 41.187V44.3131C35.4964 46.4841 37.2626 48.2502 39.4336 48.2502C41.6046 48.2502 43.3708 46.4841 43.3708 44.3131V41.187C43.3711 40.6699 43.2695 40.1578 43.0717 39.68C42.874 39.2021 42.584 38.768 42.2183 38.4023C41.8526 38.0366 41.4185 37.7466 40.9407 37.5488C40.4629 37.3511 39.9507 37.2494 39.4336 37.2497ZM39.4495 27.2802C39.2226 27.2802 38.9982 27.3283 38.7912 27.4213C38.5842 27.5143 38.3993 27.6502 38.2486 27.8199C38.098 27.9896 37.985 28.1893 37.9172 28.4059C37.8494 28.6224 37.8282 28.8509 37.8552 29.0762C37.8821 29.3016 37.9565 29.5186 38.0735 29.7131C38.1905 29.9076 38.3473 30.075 38.5337 30.2045C38.7202 30.3339 38.9319 30.4223 39.155 30.4639C39.3781 30.5055 39.6074 30.4993 39.828 30.4458C40.1743 30.3608 40.4828 30.1636 40.7052 29.8849C40.9317 29.6011 41.055 29.2488 41.055 28.8857C41.055 28.5227 40.9317 28.1704 40.7052 27.8866C40.4828 27.6079 40.1744 27.4106 39.8281 27.3255C39.704 27.2953 39.5768 27.2801 39.449 27.2802H39.4495ZM5.79869 21.526C5.39056 21.5262 4.99782 21.6818 4.70032 21.9612C4.40282 22.2406 4.22289 22.6228 4.19713 23.0301C4.17136 23.4374 4.30169 23.8393 4.56161 24.1539C4.82153 24.4686 5.19153 24.6724 5.59639 24.724C6.00124 24.7756 6.41055 24.6711 6.74109 24.4317C7.07163 24.1923 7.29858 23.836 7.37581 23.4353C7.45304 23.0345 7.37475 22.6194 7.15684 22.2743C6.93894 21.9292 6.59779 21.6801 6.20275 21.5775C6.07065 21.5432 5.9347 21.5259 5.79821 21.526H5.79869ZM25.776 22.8187L25.2693 18.7734H20.4257L19.9192 22.8187H25.776ZM32.9735 17.603C33.7432 17.603 34.3461 17.0009 34.3461 16.2323V2.54106C34.3461 1.77251 33.7432 1.17055 32.9735 1.17055H12.7226C11.953 1.17055 11.35 1.77251 11.35 2.54106V16.2323C11.35 17.0009 11.953 17.603 12.7226 17.603H19.7829L19.8147 17.5979C19.8459 17.5929 19.8774 17.5903 19.909 17.5903C19.9405 17.5903 19.972 17.5928 20.0031 17.5978L20.0349 17.603H25.6619L25.6937 17.5978C25.7568 17.5872 25.8213 17.5872 25.8844 17.5978L25.9162 17.603H32.9735Z" fill="white"/>
<path d="M42.6726 37.9474C41.9154 37.188 40.9147 36.72 39.8464 36.6255V31.1722C40.9373 30.9832 41.7698 30.0298 41.7698 28.8857C41.7698 27.7415 40.9373 26.7875 39.8464 26.5991V17.266C39.8464 16.4682 39.5415 15.7018 38.7436 15.7018H35.4405V2.54106C35.4405 1.88935 35.1825 1.27292 34.7138 0.805114C34.245 0.337308 33.6267 0.079483 32.973 0.079483H12.7221C12.0685 0.079483 11.4505 0.337149 10.9814 0.805114C10.5123 1.27308 10.2547 1.88935 10.2547 2.54106V15.7026H7.10912C6.31116 15.7026 5.51209 16.326 5.51209 17.1238C5.51209 17.3576 5.51337 18.8882 5.5148 20.8289C4.36841 20.9689 3.47747 21.9485 3.47747 23.1323C3.47747 24.316 4.36968 25.2969 5.51718 25.436C5.51718 27.3753 5.51718 29.0983 5.51527 29.8644C5.51421 30.1159 5.61276 30.3576 5.78939 30.5367C5.96601 30.7158 6.20635 30.8177 6.45788 30.8202H6.46948L27.6644 30.836C28.1109 30.836 28.4849 31.1896 28.4932 31.6361C28.4951 31.7444 28.4754 31.852 28.4353 31.9526C28.3952 32.0532 28.3355 32.1448 28.2596 32.2221C28.1837 32.2994 28.0932 32.3608 27.9933 32.4028C27.8935 32.4447 27.7862 32.4664 27.6779 32.4664H16.9415C16.5318 32.467 16.139 32.6299 15.8493 32.9196C15.5596 33.2093 15.3966 33.6021 15.3961 34.0118H14.1818V34.9455H1.90238C1.41928 34.9461 0.956104 35.1381 0.614394 35.4796C0.272685 35.8211 0.0803243 36.2842 0.079483 36.7673V48.0978C0.080072 48.5811 0.272321 49.0444 0.614058 49.3861C0.955794 49.7278 1.41911 49.92 1.90238 49.9205H29.6452C30.1284 49.92 30.5917 49.7278 30.9335 49.3861C31.2752 49.0444 31.4675 48.5811 31.4681 48.0978V36.7673C31.4675 36.284 31.2752 35.8208 30.9335 35.4791C30.5917 35.1374 30.1284 34.9452 29.6452 34.9447H17.3659V34.0112H16.0279C16.0282 33.7689 16.1246 33.5367 16.2959 33.3654C16.4672 33.1941 16.6994 33.0978 16.9416 33.0975H27.6787C27.8698 33.0973 28.059 33.0592 28.2354 32.9855C28.4117 32.9118 28.5717 32.8039 28.7062 32.6681C28.8406 32.5323 28.9469 32.3712 29.0188 32.1941C29.0907 32.0171 29.1269 31.8275 29.1252 31.6364C29.1174 30.8399 28.4565 30.2037 27.6598 30.2037L6.73287 30.2832C6.6645 30.2835 6.59674 30.2702 6.53351 30.2442C6.47027 30.2182 6.41279 30.1799 6.36438 30.1317C6.31596 30.0834 6.27756 30.026 6.25138 29.9628C6.2252 29.8997 6.21175 29.8319 6.21182 29.7636C6.21277 28.9513 6.215 27.282 6.21722 25.4147C7.29812 25.217 8.11864 24.2687 8.11864 23.1321C8.11864 21.9956 7.30018 21.0498 6.22278 20.8505C6.22517 18.8454 6.22708 17.2764 6.22708 17.1236C6.22708 16.6741 6.65928 16.3341 7.1088 16.3341H10.2561C10.2814 16.9483 10.5362 17.5262 10.9806 17.9689C11.4494 18.4369 12.0677 18.6946 12.7213 18.6946H19.3321L18.8055 22.8988H15.975C15.8413 22.8986 15.713 22.9511 15.6177 23.0449C15.5581 23.1038 15.514 23.1765 15.4895 23.2567C15.465 23.3368 15.4609 23.4218 15.4774 23.504C15.4939 23.5861 15.5306 23.6629 15.5842 23.7273C15.6378 23.7918 15.7065 23.8419 15.7843 23.8732C15.8449 23.8975 15.9097 23.9099 15.975 23.9097H19.1357L19.1732 23.9158C19.2271 23.9245 19.2821 23.9245 19.3361 23.9158L19.3736 23.9097H26.3182L26.3562 23.9159C26.4111 23.925 26.4671 23.925 26.522 23.9159L26.5602 23.9097H29.7202C29.8203 23.91 29.9182 23.8806 30.0017 23.8253C30.0852 23.77 30.1504 23.6912 30.1893 23.599C30.215 23.5371 30.2283 23.4707 30.2282 23.4036C30.2281 23.3366 30.2147 23.2702 30.1887 23.2084C30.1628 23.1466 30.1248 23.0906 30.077 23.0435C30.0292 22.9965 29.9725 22.9595 29.9103 22.9345C29.8497 22.9102 29.7849 22.8978 29.7195 22.898H26.8889L26.3622 18.6938H32.973C33.6267 18.6938 34.2447 18.4361 34.7138 17.9681C35.1588 17.5247 35.4132 16.9475 35.4383 16.3333H38.7436C39.1931 16.3333 39.1311 16.8164 39.1311 17.2659C39.1322 17.27 39.1311 22.8164 39.1311 26.5865C38.0013 26.7417 37.1283 27.7137 37.1283 28.8855C37.1283 30.0573 38.0014 31.029 39.1311 31.1845V36.6171C36.7468 36.7733 34.8536 38.763 34.8536 41.1869V44.3129C34.8536 46.8384 36.9083 48.8929 39.4336 48.8929C41.9589 48.8929 44.0136 46.8384 44.0136 44.3129V41.187C44.0149 40.5853 43.897 39.9892 43.6669 39.4332C43.4368 38.8772 43.0989 38.3722 42.6726 37.9474ZM29.6452 35.5079C29.9791 35.5083 30.2992 35.6411 30.5353 35.8772C30.7715 36.1133 30.9043 36.4334 30.9047 36.7673V48.0976C30.9043 48.4315 30.7715 48.7517 30.5353 48.9878C30.2992 49.2238 29.9791 49.3567 29.6452 49.357H1.90238C1.56848 49.3567 1.24837 49.2238 1.01227 48.9877C0.776166 48.7516 0.643358 48.4315 0.642979 48.0976V36.7673C0.643358 36.4334 0.776166 36.1133 1.01227 35.8772C1.24837 35.6411 1.56848 35.5083 1.90238 35.5079H29.6452ZM7.48314 23.1315C7.48294 23.4827 7.37292 23.8251 7.16846 24.1108C6.964 24.3964 6.67535 24.6109 6.34291 24.7243C6.01047 24.8377 5.65088 24.8444 5.31449 24.7433C4.9781 24.6422 4.68175 24.4384 4.46691 24.1605C4.25207 23.8826 4.12951 23.5445 4.11637 23.1935C4.10324 22.8425 4.2002 22.4962 4.39368 22.203C4.58715 21.9098 4.86746 21.6845 5.19535 21.5586C5.52325 21.4326 5.88232 21.4123 6.22231 21.5006C6.5831 21.595 6.90247 21.8062 7.13057 22.1012C7.35866 22.3963 7.48264 22.7586 7.48314 23.1315ZM19.8297 22.8981L20.3563 18.6939H25.3389L25.8655 22.8981H19.8297ZM34.4251 16.2324C34.4251 17.0454 33.7872 17.6825 32.973 17.6825H25.9097L25.8716 17.6761C25.8169 17.667 25.7612 17.667 25.7066 17.6761L25.6683 17.6825H20.0269L19.9894 17.6763C19.9355 17.6676 19.8805 17.6676 19.8265 17.6763L19.789 17.6825H12.7221C11.908 17.6825 11.2701 17.0454 11.2701 16.2324V2.54106C11.2701 1.72801 11.908 1.09107 12.7221 1.09107H32.973C33.7872 1.09107 34.4251 1.72801 34.4251 2.54106V16.2324ZM37.7641 28.8852C37.7641 28.5383 37.8712 28.1999 38.0707 27.9161C38.2702 27.6324 38.5524 27.4171 38.8789 27.2997C39.2053 27.1823 39.5599 27.1686 39.8945 27.2603C40.229 27.352 40.5271 27.5447 40.748 27.8121C40.9689 28.0795 41.102 28.4086 41.1289 28.7545C41.1558 29.1003 41.0753 29.446 40.8985 29.7444C40.7216 30.0428 40.4569 30.2793 40.1406 30.4217C39.8243 30.5641 39.4718 30.6054 39.1311 30.5399C38.7467 30.4656 38.4002 30.2599 38.1508 29.9581C37.9014 29.6563 37.7647 29.2772 37.7641 28.8857V28.8852ZM43.4503 44.3126C43.4503 46.5273 41.6485 48.3292 39.4336 48.3292C37.2187 48.3292 35.417 46.5273 35.417 44.3126V41.187C35.417 38.9722 37.2189 37.1702 39.4336 37.1702C39.9612 37.17 40.4836 37.2737 40.9711 37.4754C41.4586 37.6772 41.9015 37.973 42.2745 38.3461C42.6476 38.7192 42.9434 39.1621 43.1451 39.6496C43.3469 40.137 43.4506 40.6595 43.4503 41.187V44.3126Z" fill="white"/>
<path d="M39.4336 41.5485C39.2457 41.5483 39.0655 41.4735 38.9325 41.3406C38.7996 41.2077 38.7249 41.0275 38.7247 40.8396V39.7547C38.7275 39.5685 38.8034 39.3909 38.9361 39.2602C39.0687 39.1295 39.2475 39.0562 39.4337 39.0562C39.6199 39.0562 39.7987 39.1295 39.9313 39.2602C40.064 39.3909 40.1399 39.5685 40.1427 39.7547V40.8402C40.1423 41.0281 40.0674 41.2081 39.9345 41.3409C39.8016 41.4736 39.6215 41.5483 39.4336 41.5485Z" fill="white"/>
<path d="M39.4336 39.1246C39.2667 39.1247 39.1067 39.1911 38.9886 39.3091C38.8706 39.4271 38.8043 39.5872 38.8041 39.7541V40.8396C38.8068 41.0048 38.8742 41.1624 38.992 41.2783C39.1098 41.3942 39.2684 41.4592 39.4337 41.4592C39.5989 41.4592 39.7576 41.3942 39.8753 41.2783C39.9931 41.1624 40.0606 41.0048 40.0632 40.8396V39.7547C40.0633 39.5877 39.997 39.4274 39.8789 39.3093C39.7608 39.1911 39.6006 39.1247 39.4336 39.1246Z" fill="white"/>
<path d="M1.83037 38.8108V37.7649C1.83062 37.5259 1.92569 37.2967 2.09472 37.1277C2.26374 36.9586 2.49292 36.8636 2.73196 36.8633H3.77789V38.8108H1.83037Z" fill="white"/>
<path d="M3.69842 36.9428H2.73197C2.624 36.9428 2.51709 36.964 2.41733 37.0053C2.31758 37.0466 2.22694 37.1072 2.1506 37.1835C2.07425 37.2599 2.0137 37.3505 1.97239 37.4503C1.93108 37.55 1.90983 37.6569 1.90985 37.7649V38.7313H3.69842V36.9428Z" fill="white"/>
<path d="M6.37187 36.8633H4.42419V38.8108H6.37187V36.8633Z" fill="white"/>
<path d="M6.2924 36.9428H4.50368V38.7313H6.2924V36.9428Z" fill="white"/>
<path d="M8.96571 36.8633H7.01804V38.8108H8.96571V36.8633Z" fill="white"/>
<path d="M8.88623 36.9428H7.0975V38.7313H8.88623V36.9428Z" fill="white"/>
<path d="M11.5597 36.8633H9.61203V38.8108H11.5597V36.8633Z" fill="white"/>
<path d="M11.4802 36.9428H9.6915V38.7313H11.4802V36.9428Z" fill="white"/>
<path d="M14.1537 36.8633H12.206V38.8108H14.1537V36.8633Z" fill="white"/>
<path d="M14.0742 36.9428H12.2855V38.7313H14.0742V36.9428Z" fill="white"/>
<path d="M16.7475 36.8633H14.7999V38.8108H16.7475V36.8633Z" fill="white"/>
<path d="M16.668 36.9428H14.8793V38.7313H16.668V36.9428Z" fill="white"/>
<path d="M19.3415 36.8633H17.3938V38.8108H19.3415V36.8633Z" fill="white"/>
<path d="M19.262 36.9428H17.4733V38.7313H19.262V36.9428Z" fill="white"/>
<path d="M21.9355 36.8633H19.9878V38.8108H21.9355V36.8633Z" fill="white"/>
<path d="M21.856 36.9428H20.0673V38.7313H21.856V36.9428Z" fill="white"/>
<path d="M24.5293 36.8633H22.5816V38.8108H24.5293V36.8633Z" fill="white"/>
<path d="M24.4499 36.9428H22.6611V38.7313H24.4499V36.9428Z" fill="white"/>
<path d="M27.1233 36.8633H25.1756V38.8108H27.1233V36.8633Z" fill="white"/>
<path d="M27.0439 36.9428H25.2551V38.7313H27.0439V36.9428Z" fill="white"/>
<path d="M27.7695 38.8108V36.8633H28.8154C28.9338 36.8633 29.051 36.8866 29.1604 36.9319C29.2698 36.9772 29.3692 37.0436 29.453 37.1273C29.5367 37.2111 29.6031 37.3104 29.6484 37.4198C29.6937 37.5292 29.717 37.6465 29.717 37.7649V38.8108H27.7695Z" fill="white"/>
<path d="M29.6377 37.7649C29.6377 37.5469 29.5511 37.3377 29.3969 37.1836C29.2427 37.0294 29.0336 36.9428 28.8156 36.9428H27.849V38.7313H29.6375L29.6377 37.7649Z" fill="white"/>
<path d="M6.37173 39.9268H1.83022V41.8745H6.37173V39.9268Z" fill="white"/>
<path d="M6.29224 41.7951V40.0063H4.50367H1.90968V41.7951H4.50367H6.29224Z" fill="white"/>
<path d="M8.96571 39.9268H7.01804V41.8745H8.96571V39.9268Z" fill="white"/>
<path d="M8.88623 40.0063H7.0975V41.7951H8.88623V40.0063Z" fill="white"/>
<path d="M11.5597 39.9268H9.61203V41.8745H11.5597V39.9268Z" fill="white"/>
<path d="M11.4802 40.0063H9.6915V41.7951H11.4802V40.0063Z" fill="white"/>
<path d="M14.1537 39.9268H12.206V41.8745H14.1537V39.9268Z" fill="white"/>
<path d="M14.0742 40.0063H12.2855V41.7951H14.0742V40.0063Z" fill="white"/>
<path d="M16.7475 39.9268H14.7999V41.8745H16.7475V39.9268Z" fill="white"/>
<path d="M16.668 40.0063H14.8793V41.7951H16.668V40.0063Z" fill="white"/>
<path d="M19.3415 39.9268H17.3938V41.8745H19.3415V39.9268Z" fill="white"/>
<path d="M19.262 40.0063H17.4733V41.7951H19.262V40.0063Z" fill="white"/>
<path d="M21.9355 39.9268H19.9878V41.8745H21.9355V39.9268Z" fill="white"/>
<path d="M21.856 40.0063H20.0673V41.7951H21.856V40.0063Z" fill="white"/>
<path d="M24.5293 39.9268H22.5816V41.8745H24.5293V39.9268Z" fill="white"/>
<path d="M24.4499 40.0063H22.6611V41.7951H24.4499V40.0063Z" fill="white"/>
<path d="M27.1233 39.9268H25.1756V41.8745H27.1233V39.9268Z" fill="white"/>
<path d="M27.0439 40.0063H25.2551V41.7951H27.0439V40.0063Z" fill="white"/>
<path d="M29.7173 39.9268H27.7696V41.8745H29.7173V39.9268Z" fill="white"/>
<path d="M29.6378 40.0063H27.8491V41.7951H29.6378V40.0063Z" fill="white"/>
<path d="M6.37173 42.9906H1.83022V44.9382H6.37173V42.9906Z" fill="white"/>
<path d="M6.29224 44.8586V43.07H4.50367H1.90968V44.8586H4.50367H6.29224Z" fill="white"/>
<path d="M8.96571 42.9906H7.01804V44.9382H8.96571V42.9906Z" fill="white"/>
<path d="M8.88623 43.07H7.0975V44.8588H8.88623V43.07Z" fill="white"/>
<path d="M11.5597 42.9906H9.61203V44.9382H11.5597V42.9906Z" fill="white"/>
<path d="M11.4802 43.07H9.6915V44.8588H11.4802V43.07Z" fill="white"/>
<path d="M14.1537 42.9906H12.206V44.9382H14.1537V42.9906Z" fill="white"/>
<path d="M14.0742 43.07H12.2855V44.8588H14.0742V43.07Z" fill="white"/>
<path d="M16.7475 42.9906H14.7999V44.9382H16.7475V42.9906Z" fill="white"/>
<path d="M16.668 43.07H14.8793V44.8588H16.668V43.07Z" fill="white"/>
<path d="M19.3415 42.9906H17.3938V44.9382H19.3415V42.9906Z" fill="white"/>
<path d="M19.262 43.07H17.4733V44.8588H19.262V43.07Z" fill="white"/>
<path d="M21.9355 42.9906H19.9878V44.9382H21.9355V42.9906Z" fill="white"/>
<path d="M21.856 43.07H20.0673V44.8588H21.856V43.07Z" fill="white"/>
<path d="M24.5293 42.9906H22.5816V44.9382H24.5293V42.9906Z" fill="white"/>
<path d="M24.4499 43.07H22.6611V44.8588H24.4499V43.07Z" fill="white"/>
<path d="M27.1233 42.9906H25.1756V44.9382H27.1233V42.9906Z" fill="white"/>
<path d="M27.0439 43.07H25.2551V44.8588H27.0439V43.07Z" fill="white"/>
<path d="M2.73181 48.0016C2.49277 48.0014 2.26359 47.9063 2.09457 47.7373C1.92554 47.5682 1.83047 47.3391 1.83022 47.1V46.0541H3.77773V48.0016H2.73181Z" fill="white"/>
<path d="M2.7318 47.9221H3.69825V46.1336H1.90968V47.1C1.90968 47.3181 1.9963 47.5272 2.15048 47.6813C2.22682 47.7577 2.31745 47.8182 2.41719 47.8596C2.51693 47.9009 2.62384 47.9221 2.7318 47.9221Z" fill="white"/>
<path d="M6.37187 46.0541H4.42419V48.0016H6.37187V46.0541Z" fill="white"/>
<path d="M6.2924 46.1336H4.50368V47.9221H6.2924V46.1336Z" fill="white"/>
<path d="M8.96571 46.0541H7.01804V48.0016H8.96571V46.0541Z" fill="white"/>
<path d="M8.88623 46.1336H7.0975V47.9221H8.88623V46.1336Z" fill="white"/>
<path d="M21.9354 46.0541H9.61203V48.0016H21.9354V46.0541Z" fill="white"/>
<path d="M12.2855 47.9221H14.0741H17.4733H19.262H20.0673H21.8559V46.1336H20.0673H19.262H17.4733H14.0741H12.2855H11.4802H9.6915V47.9221H11.4802H12.2855Z" fill="white"/>
<path d="M24.5293 46.0541H22.5816V48.0016H24.5293V46.0541Z" fill="white"/>
<path d="M24.4499 46.1336H22.6611V47.9221H24.4499V46.1336Z" fill="white"/>
<path d="M27.1233 46.0541H25.1756V48.0016H27.1233V46.0541Z" fill="white"/>
<path d="M27.0439 46.1336H25.2551V47.9221H27.0439V46.1336Z" fill="white"/>
<path d="M27.7695 48.0016V42.9904H29.717V47.1C29.7167 47.3391 29.6217 47.5682 29.4526 47.7373C29.2836 47.9063 29.0544 48.0014 28.8154 48.0016H27.7695Z" fill="white"/>
<path d="M29.6377 47.1V43.07H27.849V44.8586V47.9221H28.8154C28.9234 47.9222 29.0303 47.9009 29.1301 47.8596C29.2299 47.8183 29.3205 47.7578 29.3969 47.6814C29.4732 47.6051 29.5338 47.5145 29.5751 47.4147C29.6164 47.3149 29.6377 47.208 29.6377 47.1Z" fill="white"/>
<path d="M22.8476 15.514C22.712 15.5139 22.5806 15.4667 22.4759 15.3805C22.3711 15.2943 22.2995 15.1745 22.2732 15.0415C22.2468 14.9085 22.2674 14.7704 22.3314 14.6508C22.3955 14.5313 22.499 14.4376 22.6243 14.3858C22.7496 14.3339 22.889 14.3272 23.0188 14.3666C23.1486 14.406 23.2607 14.4892 23.336 14.602C23.4113 14.7147 23.4452 14.8501 23.4319 14.9851C23.4187 15.1201 23.359 15.2463 23.2631 15.3422C23.2086 15.3969 23.1439 15.4402 23.0725 15.4697C23.0012 15.4992 22.9248 15.5143 22.8476 15.514Z" fill="white"/>
<path d="M22.8476 14.4226C22.7304 14.4229 22.617 14.4637 22.5266 14.5382C22.4362 14.6127 22.3743 14.7162 22.3517 14.8312C22.329 14.9461 22.3469 15.0653 22.4022 15.1686C22.4576 15.2718 22.547 15.3527 22.6553 15.3974C22.7635 15.4422 22.884 15.448 22.9961 15.4139C23.1081 15.3798 23.2049 15.308 23.27 15.2105C23.335 15.1131 23.3643 14.9961 23.3528 14.8795C23.3413 14.763 23.2898 14.654 23.207 14.5711C23.1598 14.5239 23.1038 14.4864 23.0421 14.461C22.9804 14.4355 22.9143 14.4225 22.8476 14.4226Z" fill="white"/>
<path d="M5.5283 24.0453C5.49385 24.0454 5.45971 24.0387 5.42788 24.0255C5.39604 24.0123 5.36713 23.993 5.3428 23.9685L4.83033 23.4559C4.78301 23.4071 4.75656 23.3417 4.75658 23.2738C4.75654 23.2391 4.76346 23.2048 4.77692 23.1728C4.79023 23.1411 4.80967 23.1123 4.83411 23.0881C4.85855 23.0638 4.88753 23.0447 4.91939 23.0316C4.95124 23.0186 4.98535 23.012 5.01976 23.0122C5.05418 23.0123 5.08822 23.0193 5.11995 23.0326C5.127 23.0355 5.1339 23.0387 5.14061 23.0423L5.14904 23.0339L5.20531 23.09L5.5283 23.413L6.54292 22.3984L6.5515 22.4068C6.58656 22.3885 6.62531 22.3784 6.66483 22.3772H6.67278C6.74234 22.3772 6.80905 22.4049 6.85824 22.4541C6.90743 22.5032 6.93506 22.57 6.93506 22.6395C6.93509 22.6739 6.92834 22.7079 6.91519 22.7397C6.91212 22.747 6.90878 22.7541 6.90517 22.7611L6.9136 22.7695L6.85765 22.8257L5.71317 23.9701C5.68831 23.995 5.65875 24.0146 5.62622 24.0278C5.59501 24.0399 5.56176 24.0458 5.5283 24.0453Z" fill="white"/>
<path d="M6.54291 22.51L5.5283 23.5254L5.14903 23.1461C5.11471 23.1142 5.06945 23.0967 5.02261 23.0973C4.97576 23.0978 4.9309 23.1163 4.89729 23.1489C4.86368 23.1815 4.84388 23.2258 4.84198 23.2726C4.84008 23.3194 4.85622 23.3652 4.88707 23.4004H4.88787L4.89057 23.4031L5.39923 23.9118C5.41646 23.9291 5.43701 23.9427 5.45963 23.9519C5.50373 23.9697 5.55303 23.9697 5.59713 23.9519C5.61977 23.9427 5.64032 23.9291 5.65753 23.9118L6.80201 22.7673C6.81919 22.7503 6.83283 22.7301 6.84213 22.7078C6.85144 22.6855 6.85622 22.6616 6.85621 22.6375C6.85602 22.59 6.83745 22.5444 6.80439 22.5103C6.78736 22.4928 6.76699 22.4789 6.7445 22.4694C6.722 22.4599 6.69783 22.455 6.67341 22.455H6.66801C6.62113 22.4564 6.57659 22.4757 6.54355 22.509L6.54291 22.51Z" fill="white"/>
<path d="M6.66722 22.4938L6.66309 22.3764H6.6642L6.67882 22.5346L6.6731 22.5354H6.66722V22.4938Z" fill="white"/>
<path d="M39.1791 29.7995C39.1453 29.7996 39.1118 29.7931 39.0806 29.7803C39.048 29.7671 39.0184 29.7475 38.9936 29.7227L38.4811 29.2102C38.4572 29.1854 38.4384 29.1561 38.4257 29.1241C38.4137 29.0937 38.4075 29.0614 38.4074 29.0287C38.4074 28.994 38.4143 28.9597 38.4277 28.9278C38.441 28.896 38.4604 28.8671 38.4848 28.8428C38.5092 28.8185 38.5382 28.7993 38.57 28.7862C38.6019 28.7731 38.636 28.7663 38.6704 28.7664C38.7049 28.7665 38.739 28.7734 38.7708 28.7866C38.7778 28.7896 38.7846 28.7928 38.7914 28.7965L38.7999 28.7881L38.8561 28.8443L39.1791 29.1672L40.1864 28.1599L40.194 28.1656C40.2312 28.1444 40.273 28.1326 40.3158 28.1314H40.3236C40.3932 28.1314 40.4599 28.159 40.5091 28.2082C40.5582 28.2574 40.5859 28.3241 40.5859 28.3937C40.5859 28.4281 40.5792 28.4621 40.566 28.4938C40.563 28.5011 40.5597 28.5083 40.556 28.5153L40.5644 28.5237L40.5085 28.5797L39.364 29.7241C39.3391 29.749 39.3096 29.7686 39.277 29.7818C39.2458 29.794 39.2126 29.8 39.1791 29.7995Z" fill="white"/>
<path d="M40.4522 28.5226C40.4694 28.5056 40.483 28.4854 40.4923 28.4631C40.5016 28.4408 40.5064 28.4169 40.5064 28.3927C40.5062 28.3452 40.4876 28.2997 40.4546 28.2656C40.4375 28.2481 40.4172 28.2342 40.3947 28.2247C40.3722 28.2152 40.348 28.2103 40.3236 28.2103H40.3182C40.2713 28.2117 40.2268 28.231 40.1937 28.2643L39.1791 29.2796L38.7998 28.9003C38.7655 28.8684 38.7203 28.8509 38.6734 28.8514C38.6266 28.8519 38.5817 28.8704 38.5481 28.9031C38.5145 28.9357 38.4947 28.98 38.4928 29.0268C38.4909 29.0736 38.507 29.1194 38.5379 29.1546H38.5387L38.5414 29.1573L39.05 29.666C39.0673 29.6832 39.0878 29.6969 39.1104 29.706C39.1545 29.7238 39.2038 29.7238 39.2479 29.706C39.2706 29.6969 39.2911 29.6833 39.3083 29.666L40.4528 28.5215L40.4522 28.5226Z" fill="white"/>
</g>
<path d="M52.0931 22.3127V10.6873H53.6107V17.2256L53.2391 17.0696L58.7522 10.6873H60.6571L56.0266 16.0709L56.1041 14.9785L60.8894 22.3127H59.0775L55.4227 16.7887L53.6107 18.8797V22.3127H52.0931Z" fill="white"/>
<path d="M63.5857 22.3127V10.6873H71.0966V12.0917H65.1034V15.7744H70.7869V17.1788H65.1034V20.9083H71.0966V22.3127H63.5857Z" fill="white"/>
<path d="M77.0968 22.3127V16.9915L73.1013 10.6873H74.8203L78.1654 15.9772H77.5459L80.8755 10.6873H82.5945L78.63 16.9915V22.3127H77.0968Z" fill="white"/>
<path d="M85.2855 22.3127V10.6873H90.1328C90.8245 10.6873 91.4182 10.8121 91.9137 11.0618C92.4196 11.3114 92.8068 11.6651 93.0752 12.1229C93.354 12.5702 93.4933 13.106 93.4933 13.7302C93.4933 14.3023 93.3436 14.8225 93.0442 15.2906C92.7551 15.7484 92.3267 16.1073 91.7589 16.3674L91.7434 15.79C92.2389 15.9772 92.6467 16.2269 92.9668 16.539C93.2972 16.8407 93.545 17.1944 93.7101 17.6001C93.8753 17.9954 93.9579 18.4168 93.9579 18.8641C93.9579 19.9356 93.6172 20.7783 92.9358 21.3921C92.2544 22.0059 91.3252 22.3127 90.1483 22.3127H85.2855ZM86.8032 20.9083H90.2102C90.8813 20.9083 91.4182 20.7263 91.8208 20.3622C92.2234 19.998 92.4248 19.5039 92.4248 18.8797C92.4248 18.2555 92.2234 17.7614 91.8208 17.3973C91.4182 17.0228 90.8813 16.8355 90.2102 16.8355H86.8032V20.9083ZM86.8032 15.4623H90.1018C90.6593 15.4623 91.1084 15.301 91.4491 14.9785C91.7898 14.6456 91.9602 14.2243 91.9602 13.7146C91.9602 13.184 91.7898 12.7783 91.4491 12.4974C91.1084 12.2165 90.6593 12.0761 90.1018 12.0761H86.8032V15.4623Z" fill="white"/>
<path d="M102.76 22.5C101.945 22.5 101.181 22.3544 100.468 22.0631C99.7558 21.7614 99.1312 21.3401 98.5943 20.7991C98.0678 20.2581 97.6548 19.6235 97.3554 18.8953C97.056 18.1567 96.9063 17.3557 96.9063 16.4922C96.9063 15.6183 97.056 14.8173 97.3554 14.0891C97.6548 13.3609 98.0678 12.7263 98.5943 12.1853C99.1312 11.6443 99.7506 11.2282 100.453 10.9369C101.165 10.6456 101.934 10.5 102.76 10.5C103.586 10.5 104.35 10.6508 105.052 10.9525C105.765 11.2438 106.384 11.6599 106.911 12.2009C107.447 12.7315 107.866 13.3609 108.165 14.0891C108.475 14.8173 108.63 15.6183 108.63 16.4922C108.63 17.3557 108.475 18.1567 108.165 18.8953C107.866 19.6235 107.447 20.2581 106.911 20.7991C106.384 21.3401 105.765 21.7614 105.052 22.0631C104.35 22.3544 103.586 22.5 102.76 22.5ZM102.76 21.08C103.4 21.08 103.984 20.9655 104.51 20.7367C105.037 20.4974 105.491 20.1697 105.873 19.7536C106.265 19.327 106.565 18.8381 106.771 18.2867C106.988 17.725 107.096 17.1268 107.096 16.4922C107.096 15.8576 106.988 15.2646 106.771 14.7133C106.565 14.1619 106.265 13.6782 105.873 13.262C105.491 12.8355 105.037 12.5078 104.51 12.2789C103.984 12.0397 103.4 11.92 102.76 11.92C102.13 11.92 101.552 12.0397 101.026 12.2789C100.499 12.5078 100.04 12.8355 99.6474 13.262C99.2654 13.6782 98.966 14.1619 98.7492 14.7133C98.5324 15.2646 98.424 15.8576 98.424 16.4922C98.424 17.1268 98.5324 17.725 98.7492 18.2867C98.966 18.8381 99.2654 19.327 99.6474 19.7536C100.04 20.1697 100.499 20.4974 101.026 20.7367C101.552 20.9655 102.13 21.08 102.76 21.08Z" fill="white"/>
<path d="M110.498 22.3127L114.633 10.6873H116.429L120.564 22.3127H118.938L117.994 19.5819H113.069L112.124 22.3127H110.498ZM113.549 18.1775H117.513L115.314 11.7952H115.748L113.549 18.1775Z" fill="white"/>
<path d="M123.257 22.3127V10.6873H127.33C128.094 10.6873 128.765 10.8329 129.343 11.1242C129.921 11.4155 130.37 11.8316 130.69 12.3726C131.021 12.9135 131.186 13.5481 131.186 14.2763C131.186 15.0982 130.98 15.7952 130.567 16.3674C130.154 16.9395 129.596 17.3505 128.894 17.6001L131.573 22.3127H129.808L126.989 17.2724L127.996 17.8654H124.775V22.3127H123.257ZM124.775 16.461H127.376C127.831 16.461 128.228 16.3726 128.569 16.1957C128.91 16.0189 129.173 15.764 129.359 15.4311C129.555 15.0982 129.653 14.7133 129.653 14.2763C129.653 13.829 129.555 13.4441 129.359 13.1216C129.173 12.7887 128.91 12.5338 128.569 12.357C128.228 12.1801 127.831 12.0917 127.376 12.0917H124.775V16.461Z" fill="white"/>
<path d="M134.538 22.3127V10.6873H138.317C139.483 10.6873 140.5 10.9265 141.367 11.4051C142.235 11.8836 142.906 12.5598 143.381 13.4337C143.856 14.2971 144.093 15.3166 144.093 16.4922C144.093 17.6573 143.856 18.6769 143.381 19.5507C142.906 20.4246 142.235 21.106 141.367 21.5949C140.5 22.0735 139.483 22.3127 138.317 22.3127H134.538ZM136.056 20.9083H138.332C139.189 20.9083 139.927 20.7263 140.547 20.3622C141.176 19.998 141.662 19.4883 142.002 18.8329C142.343 18.1671 142.513 17.3869 142.513 16.4922C142.513 15.5871 142.338 14.8069 141.987 14.1515C141.646 13.4961 141.161 12.9915 140.531 12.6378C139.912 12.2737 139.179 12.0917 138.332 12.0917H136.056V20.9083Z" fill="white"/>
<path d="M55.1835 39.3127V29.0917H52.0931V27.6873H59.7428V29.0917H56.6982V39.3127H55.1835Z" fill="white"/>
<path d="M68.8377 39.3127V27.6873H76.2579V29.0917H70.337V32.7744H75.9519V34.1788H70.337V37.9083H76.2579V39.3127H68.8377Z" fill="white"/>
<path d="M89.6823 39.5C88.9582 39.5 88.2952 39.3648 87.6934 39.0943C87.0916 38.8134 86.5816 38.4337 86.1635 37.9551C85.7453 37.4766 85.4444 36.9408 85.2608 36.3479L86.5612 35.8017C86.8366 36.5507 87.2446 37.1281 87.7852 37.5338C88.336 37.9291 88.9785 38.1268 89.7129 38.1268C90.1617 38.1268 90.5544 38.054 90.891 37.9083C91.2276 37.7627 91.4877 37.5598 91.6712 37.2997C91.865 37.0293 91.9619 36.7172 91.9619 36.3635C91.9619 35.8745 91.8242 35.4896 91.5489 35.2087C91.2837 34.9174 90.891 34.699 90.3708 34.5533L88.2748 33.8979C87.4486 33.6378 86.8162 33.2269 86.3776 32.6651C85.9391 32.1034 85.7198 31.4584 85.7198 30.7302C85.7198 30.0956 85.8677 29.539 86.1635 29.0605C86.4694 28.5715 86.8876 28.1918 87.418 27.9213C87.9586 27.6404 88.5706 27.5 89.2539 27.5C89.9373 27.5 90.5544 27.6248 91.1052 27.8745C91.6661 28.1242 92.1404 28.4623 92.528 28.8888C92.9156 29.3049 93.2012 29.7835 93.3848 30.3244L92.0996 30.8706C91.8548 30.2152 91.4877 29.7211 90.9981 29.3882C90.5085 29.0449 89.9322 28.8732 89.2692 28.8732C88.8613 28.8732 88.4992 28.946 88.183 29.0917C87.877 29.2269 87.6373 29.4298 87.4639 29.7003C87.3007 29.9603 87.2191 30.2724 87.2191 30.6365C87.2191 31.0631 87.3517 31.4428 87.6169 31.7757C87.8821 32.1086 88.285 32.3635 88.8256 32.5403L90.738 33.1177C91.6356 33.3986 92.3138 33.7991 92.7728 34.3192C93.2318 34.8394 93.4613 35.4844 93.4613 36.2542C93.4613 36.8888 93.2981 37.4506 92.9717 37.9395C92.6555 38.4285 92.2118 38.8134 91.6406 39.0943C91.0797 39.3648 90.4269 39.5 89.6823 39.5Z" fill="white"/>
<path d="M105.295 39.3127V29.0917H102.205V27.6873H109.854V29.0917H106.81V39.3127H105.295Z" fill="white"/>
<path d="M118.949 39.3127V27.6873H126.37V29.0917H120.449V32.7744H126.064V34.1788H120.449V37.9083H126.37V39.3127H118.949Z" fill="white"/>
<path d="M135.877 39.3127V27.6873H139.901C140.656 27.6873 141.319 27.8329 141.89 28.1242C142.461 28.4155 142.905 28.8316 143.221 29.3726C143.547 29.9135 143.711 30.5481 143.711 31.2763C143.711 32.0982 143.507 32.7952 143.099 33.3674C142.691 33.9395 142.14 34.3505 141.446 34.6001L144.093 39.3127H142.349L139.564 34.2724L140.559 34.8654H137.377V39.3127H135.877ZM137.377 33.461H139.947C140.396 33.461 140.788 33.3726 141.125 33.1957C141.462 33.0189 141.722 32.764 141.905 32.4311C142.099 32.0982 142.196 31.7133 142.196 31.2763C142.196 30.829 142.099 30.4441 141.905 30.1216C141.722 29.7887 141.462 29.5338 141.125 29.357C140.788 29.1801 140.396 29.0917 139.947 29.0917H137.377V33.461Z" fill="white"/>
<defs>
<clipPath id="clip0_1_239">
<rect width="44.0931" height="50" fill="white"/>
</clipPath>
</defs>
</svg>
