<svg width="60" height="60" viewBox="0 0 60 60" fill="none" xmlns="http://www.w3.org/2000/svg">
<mask id="path-1-inside-1_3_282" fill="white">
<path d="M50.5859 8.73535C50.2276 8.74727 49.8803 8.86165 49.585 9.06494C49.585 9.06494 44.3182 12.5 38.125 12.5C35.0284 12.5 32.6664 11.6731 30.1904 10.7446C27.7145 9.81614 25.1042 8.75 21.875 8.75C17.4101 8.75 13.75 12.4101 13.75 16.875V20H10.625C6.85028 20 3.75 23.1003 3.75 26.875V44.375C3.75 48.1497 6.85028 51.25 10.625 51.25H49.375C53.1497 51.25 56.25 48.1497 56.25 44.375V26.875C56.25 23.1003 53.1497 20 49.375 20H17.5V16.875C17.5 14.4374 19.4374 12.5 21.875 12.5C24.2708 12.5 26.348 13.3088 28.8721 14.2554C31.3961 15.2019 34.3466 16.25 38.125 16.25C45.6818 16.25 51.665 12.1851 51.665 12.1851C52.0097 11.9626 52.2719 11.6333 52.4115 11.2477C52.551 10.862 52.5603 10.4411 52.4379 10.0497C52.3154 9.65821 52.068 9.31769 51.7335 9.08029C51.399 8.8429 50.9959 8.72173 50.5859 8.73535ZM10.625 23.75H15.3174C15.5187 23.7831 15.724 23.7831 15.9253 23.75H49.375C51.1228 23.75 52.5 25.1272 52.5 26.875V44.375C52.5 46.1228 51.1228 47.5 49.375 47.5H10.625C8.87722 47.5 7.5 46.1228 7.5 44.375V26.875C7.5 25.1272 8.87722 23.75 10.625 23.75ZM13.75 27.5C13.06 27.5 12.5 28.06 12.5 28.75V30C12.5 30.69 13.06 31.25 13.75 31.25H15C15.69 31.25 16.25 30.69 16.25 30V28.75C16.25 28.06 15.69 27.5 15 27.5H13.75ZM20 27.5C19.31 27.5 18.75 28.06 18.75 28.75V30C18.75 30.69 19.31 31.25 20 31.25H21.25C21.94 31.25 22.5 30.69 22.5 30V28.75C22.5 28.06 21.94 27.5 21.25 27.5H20ZM26.25 27.5C25.56 27.5 25 28.06 25 28.75V30C25 30.69 25.56 31.25 26.25 31.25H27.5C28.19 31.25 28.75 30.69 28.75 30V28.75C28.75 28.06 28.19 27.5 27.5 27.5H26.25ZM32.5 27.5C31.81 27.5 31.25 28.06 31.25 28.75V30C31.25 30.69 31.81 31.25 32.5 31.25H33.75C34.44 31.25 35 30.69 35 30V28.75C35 28.06 34.44 27.5 33.75 27.5H32.5ZM38.75 27.5C38.06 27.5 37.5 28.06 37.5 28.75V30C37.5 30.69 38.06 31.25 38.75 31.25H40C40.69 31.25 41.25 30.69 41.25 30V28.75C41.25 28.06 40.69 27.5 40 27.5H38.75ZM45 27.5C44.31 27.5 43.75 28.06 43.75 28.75V30C43.75 30.69 44.31 31.25 45 31.25H46.25C46.94 31.25 47.5 30.69 47.5 30V28.75C47.5 28.06 46.94 27.5 46.25 27.5H45ZM13.75 33.75C13.06 33.75 12.5 34.31 12.5 35V36.25C12.5 36.94 13.06 37.5 13.75 37.5H15C15.69 37.5 16.25 36.94 16.25 36.25V35C16.25 34.31 15.69 33.75 15 33.75H13.75ZM20 33.75C19.31 33.75 18.75 34.31 18.75 35V36.25C18.75 36.94 19.31 37.5 20 37.5H21.25C21.94 37.5 22.5 36.94 22.5 36.25V35C22.5 34.31 21.94 33.75 21.25 33.75H20ZM26.25 33.75C25.56 33.75 25 34.31 25 35V36.25C25 36.94 25.56 37.5 26.25 37.5H27.5C28.19 37.5 28.75 36.94 28.75 36.25V35C28.75 34.31 28.19 33.75 27.5 33.75H26.25ZM32.5 33.75C31.81 33.75 31.25 34.31 31.25 35V36.25C31.25 36.94 31.81 37.5 32.5 37.5H33.75C34.44 37.5 35 36.94 35 36.25V35C35 34.31 34.44 33.75 33.75 33.75H32.5ZM38.75 33.75C38.06 33.75 37.5 34.31 37.5 35V36.25C37.5 36.94 38.06 37.5 38.75 37.5H40C40.69 37.5 41.25 36.94 41.25 36.25V35C41.25 34.31 40.69 33.75 40 33.75H38.75ZM45 33.75C44.31 33.75 43.75 34.31 43.75 35V36.25C43.75 36.94 44.31 37.5 45 37.5H46.25C46.94 37.5 47.5 36.94 47.5 36.25V35C47.5 34.31 46.94 33.75 46.25 33.75H45ZM13.75 40C13.06 40 12.5 40.56 12.5 41.25V42.5C12.5 43.19 13.06 43.75 13.75 43.75H15C15.69 43.75 16.25 43.19 16.25 42.5V41.25C16.25 40.56 15.69 40 15 40H13.75ZM20.625 40C20.3765 39.9965 20.1299 40.0424 19.8993 40.135C19.6687 40.2277 19.4589 40.3652 19.2819 40.5397C19.105 40.7142 18.9645 40.922 18.8686 41.1513C18.7727 41.3805 18.7233 41.6265 18.7233 41.875C18.7233 42.1235 18.7727 42.3695 18.8686 42.5987C18.9645 42.828 19.105 43.0358 19.2819 43.2103C19.4589 43.3848 19.6687 43.5223 19.8993 43.615C20.1299 43.7076 20.3765 43.7535 20.625 43.75H39.375C39.6235 43.7535 39.8701 43.7076 40.1007 43.615C40.3313 43.5223 40.5411 43.3848 40.7181 43.2103C40.895 43.0358 41.0355 42.828 41.1314 42.5987C41.2273 42.3695 41.2767 42.1235 41.2767 41.875C41.2767 41.6265 41.2273 41.3805 41.1314 41.1513C41.0355 40.922 40.895 40.7142 40.7181 40.5397C40.5411 40.3652 40.3313 40.2277 40.1007 40.135C39.8701 40.0424 39.6235 39.9965 39.375 40H20.625ZM45 40C44.31 40 43.75 40.56 43.75 41.25V42.5C43.75 43.19 44.31 43.75 45 43.75H46.25C46.94 43.75 47.5 43.19 47.5 42.5V41.25C47.5 40.56 46.94 40 46.25 40H45Z"/>
</mask>
<path d="M50.5859 8.73535C50.2276 8.74727 49.8803 8.86165 49.585 9.06494C49.585 9.06494 44.3182 12.5 38.125 12.5C35.0284 12.5 32.6664 11.6731 30.1904 10.7446C27.7145 9.81614 25.1042 8.75 21.875 8.75C17.4101 8.75 13.75 12.4101 13.75 16.875V20H10.625C6.85028 20 3.75 23.1003 3.75 26.875V44.375C3.75 48.1497 6.85028 51.25 10.625 51.25H49.375C53.1497 51.25 56.25 48.1497 56.25 44.375V26.875C56.25 23.1003 53.1497 20 49.375 20H17.5V16.875C17.5 14.4374 19.4374 12.5 21.875 12.5C24.2708 12.5 26.348 13.3088 28.8721 14.2554C31.3961 15.2019 34.3466 16.25 38.125 16.25C45.6818 16.25 51.665 12.1851 51.665 12.1851C52.0097 11.9626 52.2719 11.6333 52.4115 11.2477C52.551 10.862 52.5603 10.4411 52.4379 10.0497C52.3154 9.65821 52.068 9.31769 51.7335 9.08029C51.399 8.8429 50.9959 8.72173 50.5859 8.73535ZM10.625 23.75H15.3174C15.5187 23.7831 15.724 23.7831 15.9253 23.75H49.375C51.1228 23.75 52.5 25.1272 52.5 26.875V44.375C52.5 46.1228 51.1228 47.5 49.375 47.5H10.625C8.87722 47.5 7.5 46.1228 7.5 44.375V26.875C7.5 25.1272 8.87722 23.75 10.625 23.75ZM13.75 27.5C13.06 27.5 12.5 28.06 12.5 28.75V30C12.5 30.69 13.06 31.25 13.75 31.25H15C15.69 31.25 16.25 30.69 16.25 30V28.75C16.25 28.06 15.69 27.5 15 27.5H13.75ZM20 27.5C19.31 27.5 18.75 28.06 18.75 28.75V30C18.75 30.69 19.31 31.25 20 31.25H21.25C21.94 31.25 22.5 30.69 22.5 30V28.75C22.5 28.06 21.94 27.5 21.25 27.5H20ZM26.25 27.5C25.56 27.5 25 28.06 25 28.75V30C25 30.69 25.56 31.25 26.25 31.25H27.5C28.19 31.25 28.75 30.69 28.75 30V28.75C28.75 28.06 28.19 27.5 27.5 27.5H26.25ZM32.5 27.5C31.81 27.5 31.25 28.06 31.25 28.75V30C31.25 30.69 31.81 31.25 32.5 31.25H33.75C34.44 31.25 35 30.69 35 30V28.75C35 28.06 34.44 27.5 33.75 27.5H32.5ZM38.75 27.5C38.06 27.5 37.5 28.06 37.5 28.75V30C37.5 30.69 38.06 31.25 38.75 31.25H40C40.69 31.25 41.25 30.69 41.25 30V28.75C41.25 28.06 40.69 27.5 40 27.5H38.75ZM45 27.5C44.31 27.5 43.75 28.06 43.75 28.75V30C43.75 30.69 44.31 31.25 45 31.25H46.25C46.94 31.25 47.5 30.69 47.5 30V28.75C47.5 28.06 46.94 27.5 46.25 27.5H45ZM13.75 33.75C13.06 33.75 12.5 34.31 12.5 35V36.25C12.5 36.94 13.06 37.5 13.75 37.5H15C15.69 37.5 16.25 36.94 16.25 36.25V35C16.25 34.31 15.69 33.75 15 33.75H13.75ZM20 33.75C19.31 33.75 18.75 34.31 18.75 35V36.25C18.75 36.94 19.31 37.5 20 37.5H21.25C21.94 37.5 22.5 36.94 22.5 36.25V35C22.5 34.31 21.94 33.75 21.25 33.75H20ZM26.25 33.75C25.56 33.75 25 34.31 25 35V36.25C25 36.94 25.56 37.5 26.25 37.5H27.5C28.19 37.5 28.75 36.94 28.75 36.25V35C28.75 34.31 28.19 33.75 27.5 33.75H26.25ZM32.5 33.75C31.81 33.75 31.25 34.31 31.25 35V36.25C31.25 36.94 31.81 37.5 32.5 37.5H33.75C34.44 37.5 35 36.94 35 36.25V35C35 34.31 34.44 33.75 33.75 33.75H32.5ZM38.75 33.75C38.06 33.75 37.5 34.31 37.5 35V36.25C37.5 36.94 38.06 37.5 38.75 37.5H40C40.69 37.5 41.25 36.94 41.25 36.25V35C41.25 34.31 40.69 33.75 40 33.75H38.75ZM45 33.75C44.31 33.75 43.75 34.31 43.75 35V36.25C43.75 36.94 44.31 37.5 45 37.5H46.25C46.94 37.5 47.5 36.94 47.5 36.25V35C47.5 34.31 46.94 33.75 46.25 33.75H45ZM13.75 40C13.06 40 12.5 40.56 12.5 41.25V42.5C12.5 43.19 13.06 43.75 13.75 43.75H15C15.69 43.75 16.25 43.19 16.25 42.5V41.25C16.25 40.56 15.69 40 15 40H13.75ZM20.625 40C20.3765 39.9965 20.1299 40.0424 19.8993 40.135C19.6687 40.2277 19.4589 40.3652 19.2819 40.5397C19.105 40.7142 18.9645 40.922 18.8686 41.1513C18.7727 41.3805 18.7233 41.6265 18.7233 41.875C18.7233 42.1235 18.7727 42.3695 18.8686 42.5987C18.9645 42.828 19.105 43.0358 19.2819 43.2103C19.4589 43.3848 19.6687 43.5223 19.8993 43.615C20.1299 43.7076 20.3765 43.7535 20.625 43.75H39.375C39.6235 43.7535 39.8701 43.7076 40.1007 43.615C40.3313 43.5223 40.5411 43.3848 40.7181 43.2103C40.895 43.0358 41.0355 42.828 41.1314 42.5987C41.2273 42.3695 41.2767 42.1235 41.2767 41.875C41.2767 41.6265 41.2273 41.3805 41.1314 41.1513C41.0355 40.922 40.895 40.7142 40.7181 40.5397C40.5411 40.3652 40.3313 40.2277 40.1007 40.135C39.8701 40.0424 39.6235 39.9965 39.375 40H20.625ZM45 40C44.31 40 43.75 40.56 43.75 41.25V42.5C43.75 43.19 44.31 43.75 45 43.75H46.25C46.94 43.75 47.5 43.19 47.5 42.5V41.25C47.5 40.56 46.94 40 46.25 40H45Z" fill="black" stroke="white" stroke-width="2" mask="url(#path-1-inside-1_3_282)"/>
</svg>
