<svg width="60" height="60" viewBox="0 0 60 60" fill="none" xmlns="http://www.w3.org/2000/svg">
<path d="M11.75 28.125H11.7501L11.75 28.1178C11.7447 27.7535 11.8843 27.4019 12.1381 27.1404C12.3919 26.8789 12.7391 26.7288 13.1035 26.7231C13.2876 26.7202 13.4703 26.7543 13.6409 26.8234C13.8115 26.8924 13.9666 26.995 14.0968 27.1251C14.227 27.2551 14.3298 27.41 14.3991 27.5806C14.4684 27.7511 14.5027 27.9338 14.5001 28.1178L14.5 28.1178V28.125V32.5C14.5 41.0017 21.2891 47.8577 29.758 47.9877L29.7934 47.9883L29.8285 47.9838C29.8778 47.9776 29.9273 47.974 29.9769 47.9731C30.038 47.9726 30.099 47.9762 30.1596 47.9839L30.1944 47.9883L30.2295 47.9877C38.7043 47.8644 45.5 41.0059 45.5 32.5L45.5001 28.125L45.5 28.1179C45.4974 27.9357 45.531 27.7548 45.599 27.5857C45.6669 27.4166 45.7678 27.2627 45.8958 27.133C46.0237 27.0032 46.1761 26.9002 46.3443 26.8298C46.5124 26.7595 46.6928 26.7233 46.875 26.7233C47.0572 26.7233 47.2377 26.7595 47.4058 26.8298C47.5739 26.9002 47.7263 27.0032 47.8543 27.133C47.9822 27.2627 48.0831 27.4166 48.151 27.5857C48.219 27.7548 48.2526 27.9357 48.2501 28.1179L48.25 28.1179V28.125V32.5C48.25 41.9408 41.0301 49.7379 31.8253 50.6573L31.375 50.7022V51.1548L31.375 56.875L31.3751 56.8821C31.3776 57.0643 31.344 57.2452 31.276 57.4143C31.2081 57.5834 31.1072 57.7373 30.9793 57.867C30.8513 57.9968 30.6989 58.0998 30.5308 58.1702C30.3627 58.2405 30.1822 58.2767 30 58.2767C29.8178 58.2767 29.6374 58.2405 29.4693 58.1702C29.3012 58.0998 29.1487 57.9968 29.0208 57.867C28.8928 57.7373 28.7919 57.5834 28.724 57.4143C28.656 57.2452 28.6224 57.0643 28.625 56.8821H28.625V56.875V51.1548V50.7022L28.1747 50.6573C18.97 49.7379 11.75 41.9408 11.75 32.5V28.125ZM19.25 13.75C19.25 7.83524 24.0853 3 30 3C35.9148 3 40.75 7.83524 40.75 13.75V32.5C40.75 38.4148 35.9148 43.25 30 43.25C24.0853 43.25 19.25 38.4148 19.25 32.5V13.75ZM38 13.75C38 9.30976 34.4403 5.75 30 5.75C25.5598 5.75 22 9.30976 22 13.75V32.5C22 36.9402 25.5598 40.5 30 40.5C34.4403 40.5 38 36.9402 38 32.5V13.75Z" fill="#AEAEB2" stroke="white"/>
</svg>
