<svg width="60" height="60" viewBox="0 0 60 60" fill="none" xmlns="http://www.w3.org/2000/svg">
<path d="M13.5543 5.48207L13.5543 5.48208L13.5569 5.48191C13.6024 5.47904 13.648 5.47842 13.6935 5.48007C13.9584 5.49156 14.2144 5.57939 14.4306 5.73302C14.6471 5.8869 14.8144 6.1002 14.9123 6.34713C15.0102 6.59406 15.0345 6.86407 14.9823 7.12451C14.93 7.38495 14.8034 7.62469 14.6179 7.81474L14.6178 7.8147L14.6127 7.82008C12.4718 10.0787 10.89 12.8696 10.0896 15.9687L10.0896 15.9688C10.0444 16.1438 9.96527 16.3081 9.85661 16.4525C9.74794 16.5968 9.61191 16.7184 9.45627 16.8102C9.30063 16.902 9.12844 16.9622 8.94952 16.9874C8.77061 17.0127 8.58847 17.0024 8.41351 16.9573C8.23856 16.9121 8.07421 16.8329 7.92985 16.7243C7.78549 16.6156 7.66394 16.4796 7.57216 16.3239C7.48037 16.1683 7.42014 15.9961 7.3949 15.8172C7.36966 15.6383 7.37991 15.4561 7.42506 15.2812C8.34465 11.7205 10.1621 8.51892 12.6163 5.92991L12.6163 5.92995L12.6215 5.92431C12.8632 5.66135 13.1978 5.50275 13.5543 5.48207ZM13.0109 20.3535L13.0185 20.3135L13.0194 20.2729C13.2094 12.1043 19.9138 5.5 28.125 5.5H31.875C40.1496 5.5 46.9001 12.2047 46.9903 20.4596L46.9905 20.4792L46.9922 20.4987C46.9954 20.5338 46.9972 20.569 46.9976 20.6043L46.9977 20.614L46.9982 20.6237C46.9995 20.6488 47.0001 20.6739 47 20.6989V20.7007V39.375C47 47.706 40.206 54.5 31.875 54.5H28.125C19.794 54.5 13 47.706 13 39.375V20.8252V20.7961L12.9966 20.7671C12.9805 20.6293 12.9853 20.4899 13.0109 20.3535ZM44.1124 20.3669L44.229 20.22L44.2201 20.0327C43.911 13.4559 38.5324 8.25 31.875 8.25H28.125C21.4676 8.25 16.089 13.4559 15.7798 20.0327L15.771 20.22L15.8876 20.3669C16.2728 20.8525 17.0282 21.6595 18.4789 22.5954C20.691 24.0226 24.2985 25.5 30 25.5C35.7015 25.5 39.309 24.0226 41.5211 22.5954C42.9718 21.6595 43.7272 20.8525 44.1124 20.3669ZM28.625 14.375H28.6251L28.6249 14.3678C28.6197 14.0034 28.7593 13.6519 29.0131 13.3904C29.2669 13.1289 29.6141 12.9788 29.9785 12.9731C30.1626 12.9702 30.3453 13.0043 30.5159 13.0734C30.6865 13.1424 30.8415 13.245 30.9718 13.3751C31.102 13.5051 31.2048 13.66 31.2741 13.8306C31.3434 14.0011 31.3777 14.1838 31.3751 14.3678L31.375 14.3678V14.375V19.375H31.375L31.375 19.3821C31.3776 19.5643 31.344 19.7452 31.276 19.9143C31.2081 20.0834 31.1072 20.2373 30.9793 20.367C30.8513 20.4968 30.6989 20.5998 30.5308 20.6702C30.3626 20.7405 30.1822 20.7767 30 20.7767C29.8178 20.7767 29.6374 20.7405 29.4693 20.6702C29.3011 20.5998 29.1487 20.4968 29.0207 20.367C28.8928 20.2373 28.7919 20.0834 28.724 19.9143C28.656 19.7452 28.6224 19.5643 28.625 19.3821L28.625 19.3821V19.375V14.375ZM16.5365 24.5878L15.75 24.0378V24.9976V39.375C15.75 46.2315 21.2685 51.75 28.125 51.75H31.875C38.7315 51.75 44.25 46.2315 44.25 39.375V24.9976V24.0378L43.4635 24.5878C43.402 24.6308 43.3475 24.6699 43.296 24.7069C43.1995 24.7762 43.1132 24.8381 43.0102 24.9046C40.3783 26.6026 36.1732 28.25 30 28.25C23.8268 28.25 19.6217 26.6026 16.9898 24.9046C16.8868 24.8381 16.8006 24.7762 16.704 24.7069C16.6525 24.6699 16.598 24.6308 16.5365 24.5878Z" fill="#AEAEB2" stroke="white"/>
</svg>
