<svg width="60" height="60" viewBox="0 0 60 60" fill="none" xmlns="http://www.w3.org/2000/svg">
<path d="M49.5764 3.77484L49.5728 3.76845C49.457 3.55984 49.3974 3.32467 49.3999 3.08605C49.4025 2.84743 49.4671 2.61358 49.5874 2.40749L49.1595 2.15772L49.5874 2.40748C49.7077 2.20139 49.8795 2.03015 50.086 1.91059C50.2925 1.79107 50.5265 1.72731 50.765 1.72557C51.0186 1.72399 51.2676 1.79253 51.4847 1.92364L51.7431 1.49587L51.4847 1.92364C51.7018 2.05477 51.8783 2.24338 51.9949 2.46861L51.9949 2.46863L51.9984 2.47513C54.4034 6.95847 55.75 12.0858 55.75 17.5C55.75 22.9142 54.4034 28.0415 51.9984 32.5249L51.9949 32.5314L51.9916 32.538C51.9094 32.7027 51.795 32.8492 51.6552 32.9689C51.5154 33.0885 51.353 33.1789 51.1776 33.2347C51.0022 33.2904 50.8174 33.3104 50.6342 33.2934C50.4509 33.2765 50.273 33.2229 50.1108 33.1359C49.9486 33.0488 49.8056 32.9302 49.6901 32.7869C49.5747 32.6436 49.4892 32.4785 49.4386 32.3016C49.3881 32.1246 49.3736 31.9393 49.396 31.7566C49.4185 31.574 49.4773 31.3977 49.5691 31.2382L49.5728 31.2317L49.5763 31.2251C51.7713 27.1334 53 22.4608 53 17.5C53 12.5392 51.7713 7.8666 49.5763 3.77487L49.5764 3.77484ZM40.8821 8.7516L40.8787 8.74516C40.7669 8.53447 40.7119 8.29832 40.7189 8.05992L40.2191 8.0451L40.7189 8.05991C40.726 7.82151 40.7949 7.58904 40.919 7.38534L40.492 7.12525L40.919 7.38533C41.0431 7.18163 41.218 7.0137 41.4266 6.89803L41.1841 6.46076L41.4266 6.89802C41.6351 6.78237 41.8701 6.72294 42.1086 6.72555C42.3625 6.72843 42.6106 6.80155 42.8255 6.93681C43.0404 7.07207 43.2137 7.26418 43.3261 7.49186L43.326 7.49188L43.3294 7.49837C44.8643 10.4964 45.75 13.8963 45.75 17.5C45.75 21.1037 44.8643 24.5036 43.3294 27.5016L43.3293 27.5016L43.3246 27.5112C43.2447 27.6759 43.1326 27.8229 42.9951 27.9438C42.8576 28.0646 42.6973 28.1567 42.5237 28.2148C42.3501 28.2729 42.1667 28.2957 41.9841 28.282C41.8016 28.2682 41.6236 28.2182 41.4607 28.1347C41.2977 28.0513 41.1531 27.9361 41.0352 27.7961C40.9173 27.656 40.8286 27.4938 40.7743 27.319C40.7199 27.1442 40.701 26.9603 40.7187 26.7781C40.7363 26.5958 40.7902 26.419 40.8771 26.2579L40.8772 26.2579L40.8821 26.2484C42.2296 23.6164 43 20.6563 43 17.5C43 14.3437 42.2296 11.3836 40.8821 8.75163L40.8821 8.7516ZM11.75 17.5C11.75 10.8948 17.1448 5.5 23.75 5.5C30.3552 5.5 35.75 10.8948 35.75 17.5C35.75 24.1052 30.3552 29.5 23.75 29.5C17.1448 29.5 11.75 24.1052 11.75 17.5ZM33 17.5C33 12.3692 28.8808 8.25 23.75 8.25C18.6192 8.25 14.5 12.3692 14.5 17.5C14.5 22.6308 18.6192 26.75 23.75 26.75C28.8808 26.75 33 22.6308 33 17.5ZM4.25 40.625C4.25 37.8168 6.56677 35.5 9.375 35.5H38.125C40.9332 35.5 43.25 37.8168 43.25 40.625V42.5C43.25 46.0499 40.8206 49.1133 37.2618 51.1995C33.7123 53.2803 28.9792 54.5 23.75 54.5C18.5208 54.5 13.7877 53.2803 10.2382 51.1995C6.67942 49.1133 4.25 46.0499 4.25 42.5V40.625ZM38.125 38.25H9.375C8.04073 38.25 7 39.2907 7 40.625V42.5C7 44.823 8.63505 47.0719 11.6295 48.8273C14.6398 50.592 18.9689 51.75 23.75 51.75C28.5311 51.75 32.8602 50.592 35.8705 48.8273C38.8649 47.0719 40.5 44.823 40.5 42.5V40.625C40.5 39.2907 39.4593 38.25 38.125 38.25Z" fill="#AEAEB2" stroke="white"/>
</svg>
