<svg width="60" height="60" viewBox="0 0 60 60" fill="none" xmlns="http://www.w3.org/2000/svg">
<path d="M3.1179 48L3.1179 48H3.12497L56.875 48L56.882 48C57.0643 47.9974 57.2452 48.031 57.4142 48.099C57.5833 48.1669 57.7372 48.2678 57.867 48.3957C57.9968 48.5237 58.0998 48.6761 58.1701 48.8442C58.2405 49.0124 58.2767 49.1928 58.2767 49.375C58.2767 49.5572 58.2405 49.7376 58.1701 49.9058C58.0998 50.0739 57.9968 50.2263 57.867 50.3543C57.7372 50.4822 57.5833 50.5831 57.4142 50.651C57.2452 50.719 57.0643 50.7526 56.882 50.75V50.75H56.875L3.12497 50.75L3.1179 50.75C2.93569 50.7526 2.75479 50.719 2.5857 50.651C2.41661 50.5831 2.26271 50.4822 2.13295 50.3543C2.00319 50.2263 1.90015 50.0739 1.82982 49.9058C1.75948 49.7376 1.72327 49.5572 1.72327 49.375C1.72327 49.1928 1.75948 49.0124 1.82982 48.8442C1.90015 48.6761 2.00319 48.5237 2.13295 48.3957C2.26271 48.2678 2.41661 48.1669 2.5857 48.099C2.75479 48.031 2.93569 47.9974 3.1179 48ZM6.74997 15.625C6.74997 13.5074 8.50742 11.75 10.625 11.75H49.375C51.4925 11.75 53.25 13.5074 53.25 15.625V39.375C53.25 41.4926 51.4925 43.25 49.375 43.25H10.625C8.50742 43.25 6.74997 41.4926 6.74997 39.375V15.625ZM49.375 14.5H10.625C10.3218 14.5 10.0339 14.6074 9.82062 14.8206C9.60737 15.0339 9.49997 15.3218 9.49997 15.625V39.375C9.49997 39.6782 9.60737 39.9661 9.82062 40.1794C10.0339 40.3926 10.3218 40.5 10.625 40.5H49.375C49.6782 40.5 49.9661 40.3926 50.1793 40.1794C50.3926 39.9661 50.5 39.6782 50.5 39.375V15.625C50.5 15.3218 50.3926 15.0339 50.1793 14.8206C49.9661 14.6074 49.6782 14.5 49.375 14.5ZM20.5 27.5C20.5 22.2755 24.7755 18 30 18C35.2245 18 39.5 22.2755 39.5 27.5C39.5 32.7245 35.2245 37 30 37C24.7755 37 20.5 32.7245 20.5 27.5ZM36.75 27.5C36.75 23.7499 33.7501 20.75 30 20.75C26.2498 20.75 23.25 23.7499 23.25 27.5C23.25 31.2501 26.2498 34.25 30 34.25C33.7501 34.25 36.75 31.2501 36.75 27.5ZM28.5858 26.0858C28.9608 25.7107 29.4695 25.5 30 25.5C30.5304 25.5 31.0391 25.7107 31.4142 26.0858C31.7893 26.4609 32 26.9696 32 27.5C32 28.0304 31.7893 28.5391 31.4142 28.9142C31.0391 29.2893 30.5304 29.5 30 29.5C29.4695 29.5 28.9608 29.2893 28.5858 28.9142C28.2107 28.5391 28 28.0304 28 27.5C28 26.9696 28.2107 26.4609 28.5858 26.0858Z" fill="#AEAEB2" stroke="white"/>
</svg>
