<svg width="28" height="29" viewBox="0 0 28 29" fill="none" xmlns="http://www.w3.org/2000/svg">
<g clip-path="url(#clip0_10_1399)">
<path d="M22.4032 14.9326C22.3893 12.6376 23.4628 10.9078 25.6307 9.63238C24.4182 7.94972 22.5838 7.02429 20.1658 6.84594C17.8763 6.67094 15.3714 8.13816 14.4542 8.13816C13.4849 8.13816 11.2684 6.90651 9.5243 6.90651C5.92506 6.96035 2.09998 9.68621 2.09998 15.2322C2.09998 16.871 2.40918 18.5638 3.02758 20.307C3.85444 22.6021 6.8353 28.2254 9.94472 28.1345C11.5706 28.0975 12.7206 27.0173 14.8364 27.0173C16.8896 27.0173 17.9528 28.1345 19.7662 28.1345C22.9034 28.0908 25.5994 22.9789 26.3846 20.6771C22.1773 18.7556 22.4032 15.0505 22.4032 14.9326ZM18.7518 4.66862C20.5132 2.64273 20.3534 0.798575 20.3013 0.13562C18.7449 0.223117 16.9452 1.16202 15.9204 2.3163C14.7912 3.55472 14.1276 5.08591 14.2701 6.81228C15.9516 6.9368 17.4871 6.09885 18.7518 4.66862Z" fill="black"/>
</g>
<defs>
<clipPath id="clip0_10_1399">
<rect width="28" height="28" fill="white" transform="translate(0 0.13562)"/>
</clipPath>
</defs>
</svg>
