<svg width="28" height="28" viewBox="0 0 28 28" fill="none" xmlns="http://www.w3.org/2000/svg">
<g id="Mac">
<path id="Vector" d="M22.4032 14.797C22.3893 12.5019 23.4628 10.7722 25.6307 9.49676C24.4182 7.8141 22.5839 6.88867 20.1658 6.71032C17.8763 6.53532 15.3714 8.00254 14.4543 8.00254C13.4849 8.00254 11.2684 6.77089 9.52433 6.77089C5.92509 6.82473 2.10001 9.55059 2.10001 15.0966C2.10001 16.7354 2.40921 18.4281 3.02761 20.1713C3.85447 22.4664 6.83533 28.0897 9.94475 27.9989C11.5706 27.9619 12.7206 26.8817 14.8364 26.8817C16.8896 26.8817 17.9528 27.9989 19.7663 27.9989C22.9035 27.9551 25.5994 22.8433 26.3846 20.5415C22.1773 18.6199 22.4032 14.9148 22.4032 14.797ZM18.7518 4.533C20.5133 2.50711 20.3534 0.662955 20.3013 0C18.7449 0.0874965 16.9453 1.0264 15.9204 2.18068C14.7912 3.4191 14.1277 4.95029 14.2701 6.67666C15.9516 6.80118 17.4872 5.96323 18.7518 4.533Z" fill="white"/>
</g>
</svg>
