<svg width="10" height="9" viewBox="0 0 10 9" fill="none" xmlns="http://www.w3.org/2000/svg">
<path d="M3.0071 0.462369C3.39889 0.462369 3.72254 0.678138 3.88153 1.03586L6.56161 7.06036C6.62407 7.19095 6.7206 7.25341 6.88526 7.25341H8.65116C8.91803 7.25341 9.1338 7.45783 9.1338 7.71334C9.1338 7.96886 8.91803 8.17895 8.65116 8.17895H6.64678C6.22092 8.17895 5.95405 8.00293 5.77803 7.61114L3.08659 1.58096C3.02413 1.45036 2.92761 1.3879 2.78565 1.3879H1.0084C0.735848 1.3879 0.525757 1.18917 0.525757 0.927976C0.525757 0.666782 0.735848 0.462369 1.0084 0.462369H3.0071ZM8.65116 0.462369C8.92371 0.462369 9.12813 0.661104 9.12813 0.922298C9.12813 1.18349 8.92371 1.38223 8.65116 1.38223H6.06761C5.79506 1.38223 5.59065 1.18349 5.59065 0.922298C5.59065 0.661104 5.79506 0.462369 6.06761 0.462369H8.65116Z" fill="white"/>
</svg>
