<svg width="9" height="9" viewBox="0 0 9 9" fill="none" xmlns="http://www.w3.org/2000/svg">
<path d="M2.67743 3.42068H1.91088C1.05348 3.42068 0.355074 2.75066 0.355074 1.88758C0.355074 1.0245 1.05348 0.326094 1.91088 0.326094C2.76828 0.326094 3.46669 1.0245 3.46669 1.88758V2.65413H5.23259V1.88758C5.23259 1.0245 5.931 0.326094 6.7884 0.326094C7.64579 0.326094 8.3442 1.0245 8.3442 1.88758C8.3442 2.75066 7.64579 3.42068 6.7884 3.42068H6.01617V5.22064H6.7884C7.64579 5.22064 8.3442 5.89066 8.3442 6.75374C8.3442 7.61681 7.64579 8.31522 6.7884 8.31522C5.931 8.31522 5.23259 7.61681 5.23259 6.75374V5.99287H3.46669V6.75374C3.46669 7.61681 2.76828 8.31522 1.91088 8.31522C1.05348 8.31522 0.355074 7.61681 0.355074 6.75374C0.355074 5.89066 1.05348 5.22064 1.91088 5.22064H2.67743V3.42068ZM1.91656 2.65981H2.67743V1.89326C2.67743 1.46172 2.33106 1.11535 1.91088 1.11535C1.4907 1.11535 1.14433 1.46172 1.14433 1.88758C1.14433 2.31344 1.4907 2.65981 1.91656 2.65981ZM6.78272 2.65981C7.20858 2.65981 7.55494 2.31344 7.55494 1.88758C7.55494 1.46172 7.20858 1.11535 6.7884 1.11535C6.36821 1.11535 6.01617 1.46172 6.01617 1.89326V2.65981H6.78272ZM3.46669 5.22632H5.23259V3.415H3.46669V5.22632ZM1.91656 5.97583C1.4907 5.97583 1.14433 6.3222 1.14433 6.74806C1.14433 7.17392 1.4907 7.52029 1.91088 7.52029C2.33106 7.52029 2.67743 7.17392 2.67743 6.74806V5.97583H1.91656ZM6.78272 5.97583H6.01617V6.74806C6.01617 7.17392 6.36821 7.52029 6.7884 7.52029C7.20858 7.52029 7.55494 7.17392 7.55494 6.74806C7.55494 6.3222 7.20858 5.97583 6.78272 5.97583Z" fill="white"/>
</svg>
