<svg width="9" height="5" viewBox="0 0 9 5" fill="none" xmlns="http://www.w3.org/2000/svg">
<path d="M0.802093 3.78975L4.07838 0.49076C4.18058 0.388553 4.29414 0.33745 4.43042 0.33745C4.56102 0.33745 4.68594 0.388553 4.77679 0.49076L8.05875 3.78975C8.14392 3.8806 8.19502 3.99417 8.19502 4.12476C8.19502 4.39731 7.99061 4.60173 7.71806 4.60173C7.58746 4.60173 7.46822 4.55062 7.37737 4.46545L4.43042 1.49579L1.47779 4.46545C1.38694 4.55062 1.27338 4.60173 1.1371 4.60173C0.870231 4.60173 0.66014 4.39731 0.66014 4.12476C0.66014 3.99417 0.711243 3.8806 0.802093 3.78975Z" fill="white"/>
</svg>
