<svg width="10" height="10" viewBox="0 0 10 10" fill="none" xmlns="http://www.w3.org/2000/svg">
<path fill-rule="evenodd" clip-rule="evenodd" d="M4.27191 0.842317C4.27191 0.612945 4.45785 0.427002 4.68722 0.427002C4.91659 0.427002 5.10254 0.612945 5.10254 0.842317C5.10254 1.07169 4.91659 1.25763 4.68722 1.25763C4.45785 1.25763 4.27191 1.07169 4.27191 0.842317ZM4.6872 7.07204C5.83406 7.07204 6.76378 6.14232 6.76378 4.99546C6.76378 3.8486 5.83406 2.91889 4.6872 2.91889C3.54034 2.91889 2.61063 3.8486 2.61063 4.99546C2.61063 6.14232 3.54034 7.07204 4.6872 7.07204ZM4.6872 7.90267C6.29281 7.90267 7.5944 6.60107 7.5944 4.99546C7.5944 3.38986 6.29281 2.08826 4.6872 2.08826C3.0816 2.08826 1.78 3.38986 1.78 4.99546C1.78 6.60107 3.0816 7.90267 4.6872 7.90267ZM4.68722 8.73329C4.45785 8.73329 4.27191 8.91923 4.27191 9.14861C4.27191 9.37798 4.45785 9.56392 4.68722 9.56392C4.91659 9.56392 5.10254 9.37798 5.10254 9.14861C5.10254 8.91923 4.91659 8.73329 4.68722 8.73329ZM7.33022 1.76506C7.49241 1.60287 7.75537 1.60287 7.91756 1.76506C8.07975 1.92725 8.07975 2.19022 7.91756 2.35241C7.75537 2.5146 7.49241 2.5146 7.33022 2.35241C7.16803 2.19022 7.16803 1.92725 7.33022 1.76506ZM2.04413 7.63851C1.88194 7.47632 1.61898 7.47632 1.45679 7.63851C1.2946 7.8007 1.2946 8.06366 1.45679 8.22585C1.61898 8.38804 1.88194 8.38804 2.04413 8.22585C2.20633 8.06366 2.20633 7.8007 2.04413 7.63851ZM8.84033 4.58017C9.06971 4.58017 9.25565 4.76611 9.25565 4.99548C9.25565 5.22486 9.06971 5.4108 8.84033 5.4108C8.61096 5.4108 8.42502 5.22486 8.42502 4.99548C8.42502 4.76611 8.61096 4.58017 8.84033 4.58017ZM0.949387 4.99548C0.949387 4.76611 0.763445 4.58017 0.534073 4.58017C0.304701 4.58017 0.118759 4.76611 0.118759 4.99548C0.118759 5.22486 0.304701 5.4108 0.534073 5.4108C0.763445 5.4108 0.949387 5.22486 0.949387 4.99548ZM7.91762 7.63852C8.07982 7.80071 8.07982 8.06367 7.91762 8.22586C7.75543 8.38805 7.49247 8.38805 7.33028 8.22586C7.16809 8.06367 7.16809 7.80071 7.33028 7.63852C7.49247 7.47633 7.75543 7.47633 7.91762 7.63852ZM2.0442 2.35245C2.20639 2.19026 2.20639 1.9273 2.0442 1.76511C1.88201 1.60292 1.61905 1.60292 1.45686 1.76511C1.29467 1.9273 1.29467 2.19026 1.45686 2.35245C1.61905 2.51464 1.88201 2.51464 2.0442 2.35245Z" fill="white"/>
</svg>
