<svg width="14" height="14" viewBox="0 0 14 14" fill="none" xmlns="http://www.w3.org/2000/svg">
<path fill-rule="evenodd" clip-rule="evenodd" d="M6.41589 1.18106C6.41589 0.95169 6.60183 0.765747 6.8312 0.765747C7.06057 0.765747 7.24652 0.95169 7.24652 1.18106V2.84232C7.24652 3.07169 7.06057 3.25764 6.8312 3.25764C6.60183 3.25764 6.41589 3.07169 6.41589 2.84232V1.18106ZM6.83122 9.07203C7.97808 9.07203 8.90779 8.14232 8.90779 6.99546C8.90779 5.8486 7.97808 4.91889 6.83122 4.91889C5.68436 4.91889 4.75465 5.8486 4.75465 6.99546C4.75465 8.14232 5.68436 9.07203 6.83122 9.07203ZM6.83122 9.90266C8.43682 9.90266 9.73842 8.60106 9.73842 6.99546C9.73842 5.38986 8.43682 4.08826 6.83122 4.08826C5.22562 4.08826 3.92402 5.38986 3.92402 6.99546C3.92402 8.60106 5.22562 9.90266 6.83122 9.90266ZM6.8312 10.7333C6.60183 10.7333 6.41589 10.9192 6.41589 11.1486V12.8099C6.41589 13.0392 6.60183 13.2252 6.8312 13.2252C7.06057 13.2252 7.24652 13.0392 7.24652 12.8099V11.1486C7.24652 10.9192 7.06057 10.7333 6.8312 10.7333ZM12.6456 6.58014C12.875 6.58014 13.061 6.76608 13.061 6.99545C13.061 7.22482 12.875 7.41077 12.6456 7.41077H10.9844C10.755 7.41077 10.5691 7.22482 10.5691 6.99545C10.5691 6.76608 10.755 6.58014 10.9844 6.58014H12.6456ZM3.09341 6.99545C3.09341 6.76608 2.90746 6.58014 2.67809 6.58014H1.01683C0.787459 6.58014 0.601517 6.76608 0.601517 6.99545C0.601517 7.22482 0.787459 7.41077 1.01683 7.41077H2.67809C2.90746 7.41077 3.09341 7.22482 3.09341 6.99545ZM10.6489 2.59038C10.8111 2.42819 11.0741 2.42819 11.2363 2.59038C11.3985 2.75257 11.3985 3.01553 11.2363 3.17772L10.0616 4.35241C9.89941 4.5146 9.63645 4.5146 9.47425 4.35241C9.31206 4.19022 9.31206 3.92726 9.47425 3.76507L10.6489 2.59038ZM4.18819 9.6385C4.026 9.47631 3.76304 9.47631 3.60085 9.6385L2.42616 10.8132C2.26397 10.9754 2.26397 11.2383 2.42616 11.4005C2.58835 11.5627 2.85131 11.5627 3.0135 11.4005L4.18819 10.2258C4.35038 10.0637 4.35038 9.80069 4.18819 9.6385ZM11.2363 10.8132C11.3985 10.9754 11.3985 11.2383 11.2363 11.4005C11.0741 11.5627 10.8112 11.5627 10.649 11.4005L9.47428 10.2258C9.31209 10.0636 9.31209 9.80068 9.47428 9.63849C9.63647 9.4763 9.89944 9.4763 10.0616 9.63849L11.2363 10.8132ZM4.18811 4.35245C4.3503 4.19026 4.3503 3.9273 4.18811 3.76511L3.01342 2.59042C2.85123 2.42823 2.58827 2.42823 2.42608 2.59042C2.26389 2.75261 2.26389 3.01557 2.42608 3.17776L3.60076 4.35245C3.76295 4.51464 4.02592 4.51464 4.18811 4.35245Z" fill="white"/>
</svg>
