<svg width="16" height="10" viewBox="0 0 16 10" fill="none" xmlns="http://www.w3.org/2000/svg">
<path d="M0.499665 1.08826C0.499665 0.858887 0.685608 0.672944 0.91498 0.672944H6.72939C6.95876 0.672944 7.1447 0.858887 7.1447 1.08826V3.58015C7.1447 3.80952 6.95876 3.99546 6.72939 3.99546H0.91498C0.685608 3.99546 0.499665 3.80952 0.499665 3.58015V1.08826ZM2.16092 6.90266C2.16092 6.67329 2.34687 6.48735 2.57624 6.48735H7.56002C7.78939 6.48735 7.97533 6.67329 7.97533 6.90266V8.56392C7.97533 8.79329 7.78939 8.97924 7.56002 8.97924H2.57624C2.34687 8.97924 2.16092 8.79329 2.16092 8.56392V6.90266ZM10.4672 1.08826C10.4672 0.858887 10.6532 0.672944 10.8825 0.672944H14.2051C14.4344 0.672944 14.6204 0.858887 14.6204 1.08826V7.73329C14.6204 7.96267 14.4344 8.14861 14.2051 8.14861H10.8825C10.6532 8.14861 10.4672 7.96267 10.4672 7.73329V1.08826Z" stroke="white" stroke-width="0.830629"/>
</svg>
