<svg width="17" height="10" viewBox="0 0 17 10" fill="none" xmlns="http://www.w3.org/2000/svg">
<path d="M0.643708 1.08826C0.643708 0.858887 0.829651 0.672944 1.05902 0.672944H3.55091C3.78028 0.672944 3.96623 0.858887 3.96623 1.08826V3.58015C3.96623 3.80952 3.78028 3.99546 3.55091 3.99546H1.05902C0.829651 3.99546 0.643708 3.80952 0.643708 3.58015V1.08826ZM6.45811 1.08826C6.45811 0.858887 6.64406 0.672944 6.87343 0.672944H9.36532C9.59469 0.672944 9.78063 0.858887 9.78063 1.08826V3.58015C9.78063 3.80952 9.59469 3.99546 9.36532 3.99546H6.87343C6.64406 3.99546 6.45811 3.80952 6.45811 3.58015V1.08826ZM12.2725 1.08826C12.2725 0.858887 12.4585 0.672944 12.6878 0.672944H15.1797C15.4091 0.672944 15.595 0.858887 15.595 1.08826V3.58015C15.595 3.80952 15.4091 3.99546 15.1797 3.99546H12.6878C12.4585 3.99546 12.2725 3.80952 12.2725 3.58015V1.08826ZM0.643708 6.07204C0.643708 5.84266 0.829651 5.65672 1.05902 5.65672H3.55091C3.78028 5.65672 3.96623 5.84266 3.96623 6.07204V8.56392C3.96623 8.79329 3.78028 8.97924 3.55091 8.97924H1.05902C0.829651 8.97924 0.643708 8.79329 0.643708 8.56392V6.07204ZM6.45811 6.07204C6.45811 5.84266 6.64406 5.65672 6.87343 5.65672H9.36532C9.59469 5.65672 9.78063 5.84266 9.78063 6.07204V8.56392C9.78063 8.79329 9.59469 8.97924 9.36532 8.97924H6.87343C6.64406 8.97924 6.45811 8.79329 6.45811 8.56392V6.07204ZM12.2725 6.07204C12.2725 5.84266 12.4585 5.65672 12.6878 5.65672H15.1797C15.4091 5.65672 15.595 5.84266 15.595 6.07204V8.56392C15.595 8.79329 15.4091 8.97924 15.1797 8.97924H12.6878C12.4585 8.97924 12.2725 8.79329 12.2725 8.56392V6.07204Z" stroke="white" stroke-width="0.830629"/>
</svg>
